<svg fill="#000000" xmlns="http://www.w3.org/2000/svg" xmlns:xlink="http://www.w3.org/1999/xlink" version="1.1" x="0px" y="0px" viewBox="0 0 100 100" enable-background="new 0 0 100 100" xml:space="preserve"><path d="M83.068,10.882l-22.232-0.03c-0.002,0-0.004,0-0.008,0c-2.832,0-5.133,2.295-5.137,5.13  c-0.004,2.837,2.293,5.141,5.131,5.144l6.293,0.008c2.891-0.034,2.945-0.485,3.588-1.152c0.385-0.399,0.709-0.366,0.902-0.22  c0.25,0.189,0.213,0.548-0.152,0.928c-0.139,0.143-17.061,17.801-17.061,17.801c-4.439-2.898-9.628-4.458-15.03-4.458  c-7.582,0-14.646,3.013-19.893,8.484c-5.095,5.313-7.815,12.291-7.662,19.65s3.165,14.217,8.477,19.313  c5.156,4.943,11.929,7.668,19.071,7.668c7.581,0,14.646-3.014,19.892-8.484c9.301-9.699,10.084-24.488,2.555-35.055  c0,0,16.4-17.079,16.539-17.212c0.379-0.366,0.738-0.402,0.928-0.153c0.146,0.192,0.18,0.518-0.221,0.903  c-0.643,0.621-1.086,0.834-1.146,3.46l-0.008,5.639c-0.004,2.837,2.293,5.14,5.131,5.144c0.002,0,0.004,0,0.008,0  c2.832,0,5.133-2.296,5.135-5.13l0.031-22.233C88.199,12.544,85.992,10.882,83.068,10.882z M51.832,73.555  c-3.29,3.43-7.72,5.318-12.476,5.318c-4.479,0-8.726-1.707-11.96-4.809c-3.332-3.195-5.22-7.496-5.316-12.111  s1.61-8.992,4.805-12.324c3.29-3.431,7.721-5.32,12.477-5.32c4.478,0,8.725,1.708,11.958,4.808  C58.199,55.713,58.428,66.676,51.832,73.555z"/></svg>